<svg xmlns="http://www.w3.org/2000/svg" viewBox="0 0 100 100" width="100%" height="100%">
  <defs>
    <linearGradient id="minehubGrad" x1="0%" y1="0%" x2="100%" y2="100%">
      <stop offset="0%" stop-color="#2471A3" />
      <stop offset="50%" stop-color="#164863" />
      <stop offset="100%" stop-color="#0E2F44" />
    </linearGradient>
    <linearGradient id="goldGrad" x1="0%" y1="0%" x2="100%" y2="100%">
      <stop offset="0%" stop-color="#FFDA79" />
      <stop offset="100%" stop-color="#E5A620" />
    </linearGradient>
  </defs>
  <!-- Outer Shield / Hexagon -->
  <polygon points="50,4 92,25 92,75 50,96 8,75 8,25" fill="url(#minehubGrad)" stroke="#FFDA79" stroke-width="2.5" />
  <!-- Geological strata lines -->
  <path d="M20,40 Q50,48 80,40" stroke="#D0E8F0" stroke-width="2" fill="none" opacity="0.8" />
  <path d="M16,52 Q50,60 84,52" stroke="#D0E8F0" stroke-width="2" fill="none" opacity="0.6" />
  <path d="M22,64 Q50,72 78,64" stroke="#D0E8F0" stroke-width="1.8" fill="none" opacity="0.5" />
  <!-- Mining Core / Drill Pick Emblem -->
  <polygon points="50,20 62,38 38,38" fill="url(#goldGrad)" />
  <polygon points="50,42 66,74 34,74" fill="#ffffff" opacity="0.9" />
  <circle cx="50" cy="54" r="5" fill="#164863" />
  <!-- Center Star of Excellence -->
  <polygon points="50,14 52,18 56,18 53,20 54,24 50,22 46,24 47,20 44,18 48,18" fill="#FFDA79" />
</svg>
